<?xml version="1.0" encoding="UTF-8" standalone="no"?>

<svg
   xmlns="http://www.w3.org/2000/svg"
   width="100"
   height="100"
   version="1.1">
  <defs>
    <linearGradient id="grad" x1="0%" y1="0%" x2="100%" y2="100%">
      <stop offset="0%" style="stop-color:#f88;stop-opacity:1" />
      <stop offset="100%" style="stop-color:#822;stop-opacity:1" />
    </linearGradient>
  </defs>
  <g transform="scale(2.08)" >
    <g transform="matrix(0.056,0,0,0.056,3.66,-6.54)" >
       <path
         style="fill:url(#grad)"
         d="M 59,210 C 61,177 77,158 106,158 L 613,158 C 617,157 623,160 623,166 L 679,734 L 657,735 L 667,846 C 669,857 664,866 649,866 L 118,869 C 75,869 30,833 32,788 L 59,210 z" />
      <path
         style="fill:white"
         d="M 663,717 L 138,719 C 111,722 90,743 90,771 C 90,798 111,819 138,823 L 663,824 C 634,822 621,800 621,771 C 621,742 634,719 663,718 L 663,717 z" />
    </g>
  </g>
</svg>
