<?xml version="1.0" encoding="UTF-8" standalone="no"?>

<svg
   xmlns="http://www.w3.org/2000/svg"
   width="100"
   height="100"
   version="1.1">
  <defs>
    <linearGradient id="grad" x1="0%" y1="0%" x2="100%" y2="100%">
      <stop offset="0%" style="stop-color:#8f0;stop-opacity:1" />
      <stop offset="100%" style="stop-color:#0a0;stop-opacity:1" />
    </linearGradient>
  </defs>
  <g transform="scale(0.222)" ><g transform="translate(-40,-20)" >
    <path
       style="fill:url(#grad);fill-opacity:1;stroke:url(#grad);stroke-width:5px;stroke-linecap:butt;stroke-linejoin:round;stroke-opacity:1"
       d="M 260.90625,55.476470 C 245.70681,56.036011 228.65762,61.129776 219.56250,72.038970 C 206.33324,100.22670 238.47021,87.211880 242.25000,106.72647 C 246.02979,126.24106 223.34375,127.32022 223.34375,127.32022 L 223.34375,127.32022 L 125.59375,127.32022 L 125.59375,226.47647 C 125.32155,229.60605 123.05888,247.69404 105.15625,244.22647 C 85.641670,240.44668 98.656490,208.34095 70.468750,221.57022 C 61.261800,229.24616 56.193910,242.54956 54.500000,255.66397 C 54.473540,255.86879 54.431060,256.08428 54.406250,256.28897 C 53.439550,260.90101 52.949690,266.17802 53.156250,271.78897 C 53.715790,286.98841 58.809550,304.03760 69.718750,313.13272 C 97.906480,326.36198 84.891660,294.22501 104.40625,290.44522 C 123.92083,286.66542 125.00000,309.35147 125.00000,309.35147 L 125.59375,407.07022 C 125.59375,407.07022 223.68751,406.28896 223.68750,406.28897 C 223.68750,406.28897 246.37353,405.20979 242.59375,385.69522 C 238.81396,366.18063 206.70824,379.19544 219.93750,351.00772 C 229.03262,340.09852 246.05056,335.00475 261.25000,334.44522 C 266.86095,334.23866 272.13796,334.72851 276.75000,335.69522 C 276.95469,335.72003 277.17018,335.76250 277.37500,335.78897 C 290.48941,337.48288 303.82406,342.55076 311.50000,351.75772 C 324.72927,379.94546 292.59229,366.93062 288.81250,386.44522 C 285.03271,405.95980 307.71875,407.03896 307.71875,407.03897 L 404.90625,407.07022 L 404.90625,304.97647 C 406.29266,298.62436 410.70898,287.51995 424.84375,290.25772 C 444.35833,294.03751 431.34351,326.17449 459.53125,312.94522 C 468.73819,305.26928 473.80609,291.93463 475.50000,278.82022 C 475.52645,278.61540 475.56894,278.43116 475.59375,278.22647 C 476.56044,273.61442 477.05031,268.33742 476.84375,262.72647 C 476.28420,247.52703 471.19045,230.47784 460.28125,221.38272 C 432.09351,208.15346 445.10834,240.29043 425.59375,244.07022 C 406.07916,247.85002 405.00000,225.16397 405.00000,225.16397 L 404.90625,127.32022 L 302.75000,127.32022 C 296.34441,125.83828 285.78577,121.32834 288.46875,107.47647 C 292.24853,87.961880 324.35427,100.97671 311.12500,72.788970 C 303.44905,63.582026 290.14566,58.514136 277.03125,56.820220 C 276.82642,56.793765 276.61094,56.751282 276.40625,56.726470 C 271.79420,55.759773 266.51720,55.269913 260.90625,55.476470 z "
    />
  </g></g>
</svg>
