<?xml version="1.0" encoding="UTF-8" standalone="no"?>

<svg
   xmlns="http://www.w3.org/2000/svg"
   width="100"
   height="100"
   version="1.1">
  <defs>
    <linearGradient id="grad" x1="0%" y1="0%" x2="100%" y2="100%">
      <stop offset="0%" style="stop-color:#def;stop-opacity:1" />
      <stop offset="100%" style="stop-color:#69f;stop-opacity:1" />
    </linearGradient>
  </defs>
  <g transform="scale(0.19)" >
    <path
       style="fill:url(#grad);fill-opacity:1;stroke:url(#grad);stroke-width:15px;stroke-linecap:butt;stroke-linejoin:round;stroke-opacity:1"
       d="M 257.44008,30.840615 C 148.26068,32.594977 51.959695,93.437371 31.514119,179.74687 C 8.1572899,278.34599 92.595869,373.02219 220.01919,391.15312 C 220.046,391.30501 220.00085,391.52974 219.98874,391.74687 L 219.25798,391.77812 L 119.96626,484.12187 L 323.96949,388.27812 L 321.95991,388.34062 L 323.26918,387.34062 L 326.19221,387.24687 L 323.96949,388.27812 L 326.77073,388.18437 L 326.77073,387.21562 L 326.80118,387.21562 C 415.07407,367.77053 476.9617,315.08459 493.50531,245.24687 C 516.87169,146.60745 432.32807,51.885091 304.81755,33.809365 C 288.87873,31.549899 273.03714,30.589992 257.44008,30.840615 z"
    />
  </g>
</svg>
